<?xml version="1.0" standalone="no"?>
<!DOCTYPE svg PUBLIC "-//W3C//DTD SVG 20010904//EN"
 "http://www.w3.org/TR/2001/REC-SVG-20010904/DTD/svg10.dtd">
<svg version="1.0" xmlns="http://www.w3.org/2000/svg"
 width="900.000000pt" height="908.000000pt" viewBox="0 0 900.000000 908.000000"
 preserveAspectRatio="xMidYMid meet">

<g transform="translate(0.000000,908.000000) scale(0.100000,-0.100000)"
fill="#000000" stroke="none">
<path d="M4295 9040 c-72 -19 -155 -49 -155 -56 0 -3 7 -20 14 -39 l15 -35 83
31 c46 17 99 37 118 43 29 11 36 19 38 44 4 39 -8 40 -113 12z"/>
<path d="M4436 9033 c4 -16 8 -29 9 -30 2 -4 233 -63 245 -63 7 0 10 15 8 38
-3 37 -3 37 -78 59 -41 12 -101 22 -133 22 l-57 1 6 -27z"/>
<path d="M4726 8968 c-8 -39 2 -49 136 -142 l97 -67 7 28 c3 15 8 36 11 45 3
13 -17 31 -79 72 -46 29 -102 63 -124 74 l-42 21 -6 -31z"/>
<path d="M4305 8949 c-66 -22 -123 -44 -128 -48 -4 -4 -1 -40 8 -80 8 -40 15
-78 15 -84 -1 -13 -38 83 -47 121 -5 20 -23 32 -23 14 0 -4 -10 -13 -22 -21
-19 -11 -18 -8 5 17 25 26 28 35 22 64 -4 18 -9 36 -12 40 -5 9 -118 -68 -193
-132 -30 -26 -63 -49 -72 -53 -10 -4 -18 -14 -18 -22 0 -9 -13 -35 -29 -58
-36 -53 -75 -130 -91 -182 -7 -22 -16 -44 -21 -49 -5 -6 -9 -57 -9 -115 l0
-106 -74 -22 c-81 -25 -205 -101 -254 -157 -38 -43 -107 -181 -128 -255 -9
-31 -21 -62 -27 -69 -5 -7 -12 -74 -13 -149 -4 -134 -4 -137 -39 -199 -19 -35
-42 -96 -52 -136 -9 -40 -22 -76 -27 -80 -6 -4 -25 -8 -42 -8 -20 0 -39 -9
-55 -26 -13 -15 -49 -39 -79 -53 -109 -52 -219 -136 -330 -253 -31 -32 -60
-58 -66 -58 -6 0 -19 -9 -29 -20 -16 -18 -234 -184 -305 -233 -14 -9 -47 -33
-74 -52 -26 -19 -59 -35 -72 -35 -13 0 -24 -4 -24 -9 0 -14 -110 -73 -126 -67
-7 3 -18 -3 -24 -14 -6 -12 -33 -24 -77 -34 -38 -8 -101 -27 -142 -41 -41 -14
-86 -25 -101 -25 -46 0 -123 -28 -192 -70 -37 -22 -82 -43 -100 -47 -18 -3
-40 -11 -48 -18 -21 -18 -239 -145 -249 -145 -4 0 -18 -11 -31 -25 -24 -26
-28 -51 -18 -135 2 -19 5 -49 6 -67 1 -20 14 -46 32 -66 20 -23 30 -45 30 -67
0 -25 10 -43 46 -78 25 -25 51 -61 59 -78 17 -42 48 -57 101 -51 42 4 44 3 54
-29 27 -81 136 -89 163 -11 4 9 14 17 24 17 26 0 85 39 78 51 -13 20 5 78 26
84 11 4 31 17 45 30 15 13 46 34 69 45 24 12 89 65 146 118 117 112 148 132
250 165 41 14 109 39 152 56 43 17 85 31 94 31 9 0 24 6 32 14 26 23 163 68
188 61 13 -3 31 -1 40 4 10 5 77 25 148 46 72 20 168 52 215 71 46 19 90 34
97 34 7 0 20 9 30 20 10 10 64 39 120 63 67 29 115 57 144 85 52 49 307 252
317 252 4 0 22 -42 41 -93 44 -122 119 -270 197 -390 35 -54 64 -102 64 -107
0 -5 14 -25 31 -44 16 -19 41 -62 53 -95 13 -32 37 -79 53 -103 49 -71 63
-128 63 -252 0 -61 5 -139 10 -173 9 -56 8 -67 -10 -104 -16 -30 -25 -39 -38
-34 -107 41 -375 57 -517 31 -128 -24 -205 -51 -320 -111 -79 -42 -113 -54
-165 -60 -162 -16 -266 -76 -397 -228 -48 -56 -147 -163 -219 -237 -215 -222
-394 -437 -503 -608 -19 -28 -40 -52 -47 -52 -7 0 -22 -20 -33 -45 -11 -25
-49 -96 -84 -158 -114 -199 -206 -411 -338 -774 -33 -92 -66 -181 -73 -198 -7
-16 -30 -75 -51 -130 -91 -240 -223 -509 -326 -663 -16 -24 -29 -45 -29 -47 0
-2 -38 -71 -85 -154 -47 -84 -85 -154 -85 -156 0 -2 -22 -48 -48 -102 -26 -54
-63 -134 -81 -178 -67 -162 -169 -322 -281 -440 -42 -44 -96 -105 -119 -135
-24 -30 -55 -62 -70 -71 -26 -16 -46 -51 -53 -94 -2 -11 -15 -25 -29 -32 -34
-17 -52 -39 -76 -98 -38 -90 -41 -185 -7 -185 8 0 14 -4 14 -9 0 -23 165 -51
311 -53 108 -1 101 -2 349 59 226 55 273 77 315 152 l30 54 155 57 c172 62
230 92 230 120 0 10 4 21 8 24 5 3 14 45 22 93 7 48 16 95 21 104 5 9 5 20 1
23 -4 4 -5 53 -4 109 2 61 -3 136 -13 187 -30 166 -17 225 92 430 196 368 278
479 618 831 283 293 345 360 345 370 0 5 22 37 48 72 27 34 63 83 80 109 18
25 45 60 62 76 20 21 30 40 30 62 0 17 12 54 26 83 15 29 64 136 109 238 86
196 170 337 232 388 l36 29 63 -48 c161 -124 274 -170 484 -201 74 -11 203
-33 285 -49 159 -31 509 -82 687 -100 95 -9 117 -16 212 -60 l106 -50 -25 -67
c-31 -82 -63 -139 -186 -328 -53 -82 -119 -190 -147 -240 -28 -49 -62 -101
-75 -115 -28 -29 -37 -51 -122 -295 -91 -264 -137 -357 -285 -580 -146 -218
-289 -445 -340 -535 -30 -52 -71 -117 -91 -145 -21 -27 -42 -62 -48 -78 -6
-15 -22 -32 -35 -37 -13 -5 -28 -19 -32 -32 -10 -34 -44 -73 -62 -73 -10 0
-19 -11 -22 -25 -8 -37 -32 -70 -53 -70 -13 0 -17 -5 -13 -16 8 -20 -44 -94
-64 -91 -9 1 -16 -8 -18 -23 -5 -33 -21 -51 -41 -48 -9 1 -27 -8 -40 -21 -16
-16 -29 -21 -47 -17 -17 5 -26 2 -30 -8 -8 -20 -64 -39 -78 -27 -15 12 -27 3
-45 -32 -13 -24 -13 -33 1 -70 11 -32 20 -42 39 -44 34 -2 92 -26 102 -40 9
-15 37 -18 37 -4 0 11 99 30 106 20 7 -12 34 1 34 17 0 29 17 13 18 -16 0 -24
-5 -33 -24 -40 -16 -6 -27 -20 -31 -40 -4 -20 -16 -36 -34 -46 -73 -37 12
-155 103 -142 12 2 29 17 38 33 9 17 26 31 39 33 26 4 49 47 35 67 -5 7 -20
27 -33 45 -23 31 -23 32 -2 21 12 -7 27 -20 33 -30 11 -18 13 -18 40 2 39 29
35 50 -14 86 -25 18 -35 31 -26 31 9 0 29 -10 43 -23 l27 -23 46 43 c25 24 53
43 62 43 9 0 25 7 36 15 31 24 52 18 59 -16 6 -24 3 -34 -9 -41 -19 -11 -21
-41 -4 -68 10 -15 9 -22 -5 -38 -9 -10 -17 -25 -17 -32 0 -8 -10 -33 -21 -57
-25 -53 -21 -104 12 -139 64 -69 170 -41 155 40 -8 39 -31 63 -83 82 l-38 15
39 -5 c47 -6 82 -37 92 -79 l6 -31 19 23 c11 13 19 31 19 40 0 28 -52 80 -95
95 -22 8 -32 15 -22 15 27 1 72 -25 100 -58 28 -34 37 -31 37 13 0 26 -8 36
-42 59 -23 15 -35 27 -28 27 8 0 26 -9 39 -19 24 -19 25 -19 43 4 29 37 22 53
-37 86 -30 17 -55 32 -55 34 0 7 63 -15 84 -28 19 -13 23 -12 39 9 9 12 17 29
17 37 0 19 72 37 150 37 58 0 63 -2 95 -37 19 -21 35 -46 35 -56 0 -9 9 -25
20 -34 11 -10 20 -25 20 -35 0 -30 21 -65 46 -77 14 -6 27 -19 31 -28 10 -28
45 -63 64 -63 9 0 19 -7 23 -15 4 -10 20 -15 50 -15 36 0 50 5 71 28 57 60 44
107 -30 106 -42 0 -45 1 -29 13 10 7 27 13 38 13 19 1 18 3 -9 25 -24 20 -37
24 -65 19 -26 -4 -31 -3 -20 5 8 6 23 11 33 11 23 0 22 32 -3 55 -15 13 -28
16 -56 11 -24 -5 -34 -4 -29 3 3 6 17 11 30 11 14 0 29 9 35 21 13 22 45 22
45 -1 0 -8 12 -21 28 -28 26 -12 29 -17 31 -52 1 -8 10 -19 21 -25 31 -15 69
-48 81 -70 6 -12 23 -20 38 -21 14 -1 34 -8 44 -18 34 -30 82 -15 107 34 30
58 11 95 -36 70 -19 -11 -21 -10 -16 3 3 9 0 27 -6 42 -12 25 -19 26 -62 9
-17 -7 -18 -6 -7 8 9 12 10 18 2 23 -6 4 -9 13 -6 21 6 16 -10 29 -19 14 -3
-6 -19 -17 -35 -25 -26 -13 -29 -13 -24 0 3 8 14 17 25 20 23 8 24 18 4 49 -9
13 -15 28 -14 32 4 23 -4 23 -46 -2 -48 -28 -62 -18 -20 14 29 23 31 35 10 52
-8 7 -15 20 -15 30 0 24 -22 31 -45 14 -25 -18 -41 -18 -25 1 10 12 6 20 -19
46 -25 24 -37 30 -59 25 -15 -3 -21 -3 -14 0 15 7 16 26 0 42 -16 16 -38 81
-38 115 0 35 -20 75 -54 106 l-26 24 0 -46 c0 -33 4 -47 13 -47 8 0 22 -10 33
-22 l19 -21 -27 17 c-30 20 -48 14 -48 -14 0 -10 -5 -31 -12 -47 -6 -15 -11
-35 -10 -43 1 -10 0 -11 -4 -2 -10 22 -67 45 -129 52 l-60 7 50 1 c30 1 67 -6
93 -18 46 -21 46 -21 56 39 4 24 1 40 -10 52 -22 24 -105 51 -146 47 -30 -3
-35 -8 -53 -61 -16 -48 -17 -59 -6 -66 10 -6 10 -10 1 -13 -6 -2 -15 -19 -20
-38 l-8 -35 -1 37 c-1 39 -14 51 -70 69 -17 5 -20 8 -8 8 10 1 31 -6 47 -14
33 -17 31 -18 55 53 13 42 14 56 5 68 -11 12 -10 13 2 9 11 -4 21 9 36 50 12
31 22 59 22 61 0 3 -15 12 -32 20 -31 14 -11 14 24 -1 13 -5 20 4 34 49 20 64
17 70 -42 91 -22 8 -31 14 -21 15 10 0 33 -6 51 -14 34 -14 34 -14 59 24 l25
39 -21 16 c-20 15 -20 15 6 0 26 -15 31 -15 65 2 20 10 39 26 40 36 4 22 -82
107 -107 107 -9 0 -38 -20 -66 -45 l-50 -44 33 -12 c18 -6 31 -13 29 -15 -2
-2 -18 1 -36 7 -22 8 -35 8 -44 1 -10 -8 -13 -6 -13 9 0 10 4 19 9 19 19 0
107 83 107 101 0 12 5 16 14 13 10 -4 28 12 51 45 49 69 54 65 8 -5 l-38 -57
25 -16 c14 -9 43 -33 66 -53 l40 -37 36 47 c62 82 64 87 48 118 -21 39 -98 86
-120 74 -14 -8 -16 -5 -12 15 5 28 27 33 36 10 3 -8 12 -15 21 -15 9 0 38 -21
65 -46 l48 -45 56 78 c30 43 56 86 56 95 0 20 -60 71 -117 99 -51 25 -59 35
-33 42 11 3 18 0 17 -6 -1 -7 16 -21 39 -32 23 -11 57 -32 77 -47 20 -16 38
-28 40 -28 11 0 108 172 105 187 -3 15 -49 55 -104 90 -15 10 -12 10 16 1 19
-6 52 -23 72 -39 20 -16 38 -29 40 -29 2 0 30 51 63 114 l60 114 -20 22 c-11
12 -41 35 -67 52 -26 17 -46 33 -44 35 8 8 63 -20 102 -52 32 -26 44 -32 52
-22 25 31 122 218 122 235 0 22 -53 72 -101 98 -17 8 -29 18 -26 20 7 8 79
-31 115 -60 23 -20 32 -23 39 -13 19 24 83 162 83 179 0 18 -48 71 -95 106
l-30 21 33 -12 c19 -7 52 -28 73 -48 28 -26 42 -33 49 -25 17 21 90 188 90
206 0 19 -46 70 -87 97 -13 9 -21 18 -19 21 7 6 89 -42 106 -62 7 -9 16 -16
20 -16 11 0 68 146 81 208 15 73 7 94 -52 141 -62 50 -41 55 23 6 l46 -34 11
46 c7 25 23 73 37 106 14 33 23 65 20 72 -6 17 -90 75 -124 86 -23 8 -22 8 11
5 20 -3 58 -19 83 -35 25 -17 46 -31 48 -31 9 0 67 181 64 200 -5 36 -71 82
-146 102 l-67 18 53 -5 c64 -6 106 -23 149 -59 l32 -27 31 98 c16 53 30 107
30 119 0 43 -107 111 -190 121 -27 3 -48 9 -45 13 6 10 122 -8 154 -25 16 -8
42 -26 59 -40 27 -23 31 -23 37 -7 4 9 9 65 12 123 5 102 5 107 -18 128 -38
36 -77 52 -148 61 l-66 9 76 -2 c64 -2 82 -6 117 -30 23 -15 43 -27 45 -27 2
0 7 50 10 112 4 61 11 116 15 120 16 16 184 12 229 -4 l43 -16 5 32 c12 75 13
78 12 23 l-2 -57 56 6 c31 3 59 2 62 -2 3 -5 -14 -9 -37 -10 -23 0 -51 -6 -64
-13 -21 -11 -22 -17 -22 -151 0 -146 1 -150 43 -129 15 7 11 1 -10 -18 -18
-15 -37 -44 -42 -63 l-11 -35 4 37 c10 85 -107 152 -229 130 l-40 -7 -6 -91
c-4 -50 -10 -105 -13 -122 l-7 -30 85 -3 c78 -4 87 -6 116 -34 19 -18 40 -29
53 -27 22 3 22 2 3 -13 -18 -14 -22 -13 -45 9 -35 33 -72 46 -136 46 -60 0
-85 -7 -85 -24 0 -6 -14 -53 -30 -105 -17 -51 -30 -97 -30 -102 0 -5 10 -9 23
-9 43 0 100 -22 126 -48 14 -15 29 -27 34 -28 4 -1 17 -3 30 -4 19 -2 18 -3
-9 -12 -18 -6 -37 -20 -42 -32 -9 -18 -10 -16 -5 12 8 43 -15 67 -78 82 -81
20 -90 14 -127 -92 -18 -51 -32 -98 -32 -104 0 -6 17 -16 39 -22 41 -13 91
-56 91 -78 0 -8 5 -14 11 -14 6 0 8 -9 4 -20 -5 -17 -2 -20 22 -21 l28 -1 -32
-9 c-29 -8 -34 -16 -59 -94 -16 -46 -30 -83 -32 -81 -2 2 11 49 28 104 29 90
31 103 19 128 -18 36 -56 63 -100 70 -40 7 -43 2 -85 -120 -33 -95 -32 -112 7
-120 38 -7 99 -66 99 -96 0 -14 4 -19 12 -14 8 5 9 2 5 -9 -4 -10 0 -20 11
-26 15 -9 14 -10 -4 -8 -16 1 -24 11 -32 42 -14 51 -51 86 -93 88 l-33 2 -22
-85 c-13 -47 -33 -106 -45 -132 -12 -27 -19 -51 -16 -55 4 -3 28 -14 54 -22
32 -11 55 -26 69 -48 12 -18 25 -29 29 -25 5 4 5 2 1 -5 -3 -6 1 -16 10 -21
14 -8 14 -10 -5 -15 -16 -4 -21 -1 -21 15 0 48 -108 107 -148 81 -19 -11 -20
-14 -71 -127 -41 -90 -43 -106 -13 -106 26 0 122 -59 122 -74 0 -8 5 -16 12
-18 8 -3 8 -9 -1 -24 -8 -13 -11 -14 -7 -3 10 36 -68 89 -136 92 l-41 2 -44
-88 c-44 -88 -46 -107 -16 -107 56 0 149 -78 123 -104 -8 -8 -10 -7 -5 5 11
30 -72 77 -137 79 -23 0 -33 -11 -79 -92 -28 -51 -60 -105 -70 -120 -11 -14
-19 -30 -19 -35 0 -4 20 -16 45 -27 25 -10 53 -29 64 -41 14 -19 21 -21 31
-12 10 9 10 7 0 -9 l-13 -22 -23 28 c-28 32 -73 53 -105 48 -18 -2 -37 -27
-81 -108 -31 -58 -57 -110 -58 -116 0 -6 11 -16 24 -22 28 -12 51 -44 60 -82
5 -17 0 -13 -14 12 -21 38 -77 76 -89 61 -12 -13 -111 -173 -111 -178 0 -3 17
-21 38 -41 l37 -36 -36 26 c-20 14 -41 26 -46 26 -6 0 -38 -40 -71 -88 l-61
-89 29 -22 c17 -12 30 -26 30 -32 0 -5 -13 0 -29 12 -16 12 -36 19 -44 16 -8
-3 -35 -35 -61 -71 l-47 -66 25 -33 c35 -46 33 -60 -2 -17 -28 33 -29 33 -53
17 -13 -9 -31 -17 -41 -17 -10 0 -18 -4 -18 -10 0 -5 -8 -10 -18 -10 -15 0
-52 -45 -52 -63 0 -3 14 -8 30 -12 17 -4 44 -18 60 -32 l30 -25 20 24 c11 12
19 19 20 15 0 -17 41 16 56 46 9 18 30 48 46 67 17 19 46 54 67 78 20 24 85
94 145 155 291 300 416 482 676 987 33 64 101 215 106 237 4 16 10 33 14 38
10 13 80 230 80 247 0 7 5 30 11 51 7 27 14 36 22 29 19 -15 516 -227 802
-342 147 -59 164 -70 113 -70 -19 0 -54 -6 -76 -14 -22 -8 -43 -12 -46 -9 -8
8 -199 -27 -213 -39 -8 -6 -13 -7 -13 -1 0 6 -18 7 -47 2 -27 -5 -65 -11 -86
-14 -21 -3 -46 -14 -57 -25 -10 -10 -21 -16 -24 -13 -3 3 -9 -2 -12 -11 -5
-12 -9 -14 -14 -6 -13 22 -55 -10 -85 -66 -23 -43 -30 -69 -31 -117 -1 -34 -5
-78 -9 -98 -17 -82 42 -269 103 -331 15 -14 38 -40 51 -58 32 -42 135 -111
199 -133 30 -10 71 -29 92 -43 21 -14 43 -23 49 -20 15 9 181 -88 221 -129 19
-19 41 -35 49 -35 8 0 40 -25 72 -55 83 -79 105 -86 241 -79 76 4 160 1 255
-10 186 -21 237 -20 319 5 87 26 97 36 89 83 -18 91 -121 185 -190 172 -54
-10 -58 -32 -18 -84 55 -73 86 -152 65 -166 -6 -3 -13 11 -17 31 -9 51 -37
102 -74 137 -27 26 -34 28 -77 22 -53 -7 -54 2 -2 13 l33 8 -70 32 c-61 29
-78 32 -130 28 -33 -3 -69 -8 -80 -12 -15 -6 -17 -5 -9 4 5 6 36 15 68 19 l59
7 -55 38 c-54 37 -57 37 -103 27 -26 -6 -50 -8 -53 -6 -2 3 15 8 38 12 54 9
43 19 -59 54 -58 20 -76 22 -99 13 -59 -23 -66 -24 -33 -2 l33 22 -53 28 c-30
15 -63 37 -74 50 l-20 24 20 -16 c28 -23 121 -69 139 -69 9 0 27 22 40 49 l25
49 -63 41 c-35 22 -69 48 -77 58 -13 17 -13 17 11 0 131 -91 132 -91 109 -16
-11 34 -17 64 -14 67 8 8 101 22 189 29 43 3 144 0 225 -7 80 -6 279 -13 441
-15 311 -4 329 -5 564 -36 178 -23 260 -24 345 -4 146 35 260 117 309 223 21
47 26 71 25 137 0 82 -26 195 -44 195 -6 0 -7 5 -4 10 3 6 1 10 -5 10 -6 0 -9
4 -6 9 3 4 -6 19 -19 31 -25 24 -34 47 -13 34 7 -5 8 -3 4 5 -5 7 -10 10 -13
7 -3 -3 -14 5 -25 17 -11 12 -16 15 -12 7 5 -10 0 -9 -14 4 -23 20 -30 32 -12
21 6 -3 10 -2 10 3 0 17 -13 22 -27 10 -11 -9 -13 -8 -11 2 2 8 -13 22 -32 32
-19 10 -51 32 -70 50 -44 42 -97 71 -113 61 -8 -4 -8 -2 1 9 10 12 10 18 1 23
-6 4 -16 1 -21 -6 -8 -11 -9 -10 -4 3 3 11 0 18 -7 18 -8 0 -6 4 3 10 11 7 6
8 -17 5 -37 -4 -39 -2 -18 19 14 14 13 15 -12 13 -22 -2 -27 2 -25 15 2 10 -2
18 -8 18 -6 0 -8 -4 -5 -10 14 -22 -16 -8 -31 14 -8 14 -21 23 -28 20 -8 -3
-16 2 -20 11 -3 10 -11 13 -18 9 -7 -4 -10 -4 -6 1 11 12 -11 45 -26 39 -7 -3
-25 11 -40 30 -15 21 -32 33 -40 30 -8 -3 -17 -1 -21 5 -3 7 0 8 9 5 9 -3 16
-2 16 4 0 14 -26 22 -37 11 -5 -5 -9 -1 -10 11 -1 13 3 17 14 13 11 -4 14 -3
9 6 -4 6 -16 9 -27 6 -22 -7 -28 20 -6 29 6 2 1 3 -13 2 -33 -4 -80 23 -80 47
0 10 5 15 10 12 6 -3 10 -1 10 4 0 13 -2 13 -33 2 -18 -7 -24 -6 -24 4 0 8 5
11 11 8 6 -4 5 1 -3 10 -7 9 -21 17 -31 17 -10 0 -20 7 -24 15 -3 8 0 15 6 15
6 0 9 3 6 6 -4 3 -16 0 -28 -6 -21 -11 -21 -10 -16 27 3 21 3 34 -1 28 -5 -5
-16 -16 -26 -24 -15 -12 -17 -12 -12 2 4 8 -2 21 -12 28 -11 8 -22 22 -26 32
-3 9 -11 17 -17 17 -6 0 -8 -6 -5 -12 4 -7 -3 -2 -14 12 -11 14 -21 21 -21 17
0 -4 -6 -2 -14 5 -7 7 -12 18 -9 24 2 7 0 15 -6 19 -7 3 -11 -3 -12 -17 -1
-20 -2 -21 -6 -3 -7 27 -23 46 -34 39 -5 -3 -9 0 -9 5 0 6 -7 11 -15 11 -8 0
-15 4 -15 9 0 4 -9 20 -21 35 -17 21 -24 24 -35 15 -11 -9 -15 -8 -20 5 -3 9
-10 14 -14 11 -4 -3 -7 3 -6 13 0 9 -5 16 -11 15 -7 -2 -13 3 -13 11 0 9 -7
12 -18 9 -14 -3 -22 4 -32 26 -11 27 -26 36 -52 32 -5 0 -8 4 -8 10 0 5 -5 7
-10 4 -6 -4 -7 -11 -4 -17 4 -7 2 -8 -4 -4 -6 4 -8 14 -5 23 4 11 3 14 -5 9
-8 -5 -10 -2 -6 9 5 13 9 13 23 3 14 -10 14 -10 3 2 -14 16 -17 17 -58 19 -17
1 -23 5 -18 13 6 9 3 9 -9 0 -18 -15 -37 -8 -37 14 0 10 5 12 13 8 7 -5 7 -2
-2 10 -9 11 -25 16 -45 14 -28 -2 -31 0 -28 22 3 24 2 24 -13 5 -11 -14 -13
-15 -9 -4 3 10 0 20 -7 25 -8 5 -10 3 -4 -7 7 -11 6 -12 -7 -2 -8 7 -18 10
-21 6 -4 -3 -13 -1 -20 5 -8 7 -17 8 -22 4 -4 -4 -4 3 0 16 6 22 5 23 -34 19
-22 -2 -46 0 -53 4 -7 5 -9 9 -5 9 4 0 3 9 -3 21 -7 11 -14 18 -17 15 -3 -3 0
-12 7 -21 8 -10 9 -15 2 -15 -6 0 -17 10 -23 22 -8 14 -14 18 -16 11 -3 -9
-10 -10 -23 -3 -12 7 -20 6 -22 0 -4 -12 -58 10 -58 23 0 10 8 9 31 -4 18 -9
19 -8 8 9 -7 11 -23 19 -40 19 -15 0 -26 -4 -23 -9 8 -12 -3 -10 -36 7 -15 8
-31 20 -33 27 -4 10 -8 10 -16 -2 -8 -11 -4 -17 17 -26 15 -7 20 -13 11 -13
-8 -1 -24 6 -35 14 -10 8 -14 15 -9 15 6 0 3 5 -5 10 -20 13 -33 13 -25 0 9
-15 -16 -12 -45 5 l-25 15 26 -6 c19 -4 28 -1 32 10 4 10 1 16 -8 16 -8 0 -18
8 -24 17 -5 10 -13 14 -17 10 -4 -4 1 -14 12 -23 18 -14 17 -15 -15 -8 -22 4
-31 3 -27 -4 4 -7 -4 -8 -26 -1 -18 5 -35 9 -38 9 -3 0 1 4 9 9 11 7 9 10 -8
16 -11 3 -21 13 -21 21 0 16 -9 18 -29 5 -11 -7 -10 -11 5 -20 14 -8 15 -10 4
-11 -19 0 -42 15 -41 26 0 5 -7 9 -17 10 -46 3 -48 4 -32 14 13 8 13 10 -1 10
-10 0 -20 11 -23 25 -4 14 -11 23 -16 20 -6 -4 -7 -11 -4 -17 5 -8 1 -9 -10
-5 -10 4 -19 7 -20 7 -1 0 -1 14 2 30 3 24 1 30 -14 30 -16 0 -17 -2 -4 -10
13 -8 13 -10 -2 -10 -14 0 -16 6 -11 32 6 28 5 30 -9 17 -9 -8 -13 -18 -10
-23 3 -5 0 -6 -6 -2 -7 4 -6 16 5 37 15 30 10 56 -6 30 -7 -10 -9 -9 -14 3 -4
9 -3 15 1 13 4 -1 7 3 7 8 0 6 -3 9 -7 8 -5 -2 -8 2 -8 7 0 6 5 10 10 10 6 0
10 5 10 11 0 5 -4 8 -9 5 -14 -9 -21 22 -11 50 7 19 7 23 -2 18 -8 -5 -9 -2
-5 9 3 10 2 17 -3 17 -5 0 -7 12 -4 26 3 17 -2 34 -12 45 -13 15 -14 19 -3 19
11 0 11 2 1 8 -12 8 -16 19 -29 82 -6 29 -10 93 -12 203 -1 53 -4 76 -12 72
-7 -5 -7 -2 0 11 6 11 26 69 45 129 20 65 57 151 90 210 108 194 172 379 183
535 6 89 0 101 -17 34 -9 -35 -9 -36 -6 -6 1 18 -1 35 -5 38 -5 2 -5 15 0 27
5 12 7 31 5 42 -9 51 -7 72 10 98 15 22 17 37 11 85 l-8 57 -15 -37 c-8 -20
-21 -39 -28 -42 -11 -4 -12 -1 -4 14 12 23 13 43 1 36 -10 -6 -25 43 -16 52 3
3 5 -2 5 -11 0 -9 4 -19 10 -22 6 -4 7 1 3 11 -5 13 -3 15 8 10 8 -4 4 2 -9
13 -14 12 -20 25 -16 32 4 8 3 9 -4 5 -8 -5 -12 2 -12 19 0 14 -4 24 -10 20
-6 -4 -6 -15 0 -31 14 -37 11 -53 -4 -24 -8 13 -12 36 -10 50 3 16 1 20 -4 12
-13 -19 -34 10 -36 47 0 21 -4 27 -12 20 -8 -7 -14 -6 -17 3 -2 7 -7 10 -11 7
-4 -4 -3 -58 3 -120 6 -63 10 -148 9 -189 -1 -61 -2 -52 -8 48 -4 68 -13 167
-20 220 l-13 95 -103 117 c-57 64 -114 125 -128 134 l-26 16 0 -124 c0 -147
16 -322 33 -353 7 -11 39 -61 72 -110 33 -48 83 -134 112 -191 44 -88 52 -99
56 -75 2 15 4 -8 4 -52 0 -44 -2 -69 -6 -56 -5 20 -12 9 -40 -63 -19 -48 -53
-117 -77 -155 -40 -62 -43 -71 -34 -102 6 -18 10 -41 9 -49 -1 -8 -6 5 -13 29
-20 76 -40 77 -212 11 -127 -48 -122 -40 -81 -151 20 -52 43 -133 53 -180 l18
-86 50 23 c55 26 133 32 167 13 15 -8 24 -7 36 3 15 12 15 11 5 -9 -11 -19
-16 -21 -43 -11 -43 15 -132 4 -173 -21 l-34 -21 0 -165 c1 -115 4 -165 12
-165 6 0 35 7 64 14 28 8 52 10 52 5 0 -5 -8 -9 -18 -9 -36 0 -112 -32 -112
-47 0 -11 -5 -9 -17 6 -19 23 -72 39 -133 42 l-35 1 40 8 c26 5 53 3 78 -6 22
-8 44 -14 49 -14 16 0 6 306 -10 322 -17 17 -204 23 -274 9 -81 -17 -81 -18
-63 -86 19 -74 12 -83 -10 -13 -21 63 -29 73 -75 87 l-35 11 32 -5 c18 -2 35
0 39 6 9 16 -114 256 -143 279 -14 11 -22 23 -19 28 3 5 -4 24 -15 43 l-20 34
31 -36 30 -37 58 24 c67 27 211 54 288 54 34 0 54 4 54 12 0 33 -183 305 -210
311 -18 4 -17 5 2 4 16 -1 48 25 106 85 64 66 151 137 200 164 4 2 -92 173
-149 265 -104 168 -119 193 -119 203 1 6 8 -2 17 -19 8 -16 57 -93 108 -170
51 -77 106 -166 121 -197 15 -32 31 -58 34 -58 4 0 14 26 24 58 20 64 68 155
99 190 17 18 19 26 10 40 -7 9 -50 78 -97 152 -98 156 -170 250 -191 250 -8 0
-31 -25 -51 -55 -21 -30 -39 -53 -42 -51 -6 6 48 103 65 118 11 9 -11 35 -112
132 -70 67 -129 122 -133 123 -4 1 -17 -28 -30 -64 -12 -37 -27 -72 -32 -77
-27 -27 3 -85 130 -249 33 -43 60 -85 60 -93 0 -9 5 -12 12 -8 7 4 8 3 4 -5
-4 -6 -12 -9 -17 -5 -22 13 -88 -68 -154 -190 -31 -59 -36 -76 -32 -113 4 -41
4 -43 -10 -24 -8 12 -24 21 -36 22 -12 0 -16 3 -9 6 6 2 12 17 12 31 0 39
-113 392 -126 392 -6 0 -37 -45 -69 -100 -33 -54 -61 -98 -63 -96 -5 6 36 84
86 161 l45 70 -13 93 c-15 109 -8 133 10 35 7 -37 15 -72 17 -76 3 -4 17 12
33 36 27 44 81 91 94 82 3 -3 4 -2 1 2 -3 3 1 13 9 22 18 20 56 136 56 170 0
34 -113 167 -211 250 -40 33 -74 59 -76 57 -2 -2 3 -30 12 -62 11 -42 13 -77
8 -124 -4 -36 -7 -67 -6 -70 1 -3 4 -19 8 -35 6 -30 6 -30 -9 3 -19 40 -28 36
-61 -26 -14 -26 -23 -36 -19 -22 3 14 18 46 31 72 l25 46 -58 109 c-33 59 -60
110 -61 113 -1 3 -4 17 -7 32 -5 21 -19 34 -61 53 -32 16 -63 24 -74 20 -12
-4 -36 -40 -63 -95 -23 -49 -44 -87 -46 -85 -2 2 16 43 39 92 24 48 43 90 44
93 0 3 9 19 19 35 9 17 15 22 12 13 -6 -21 8 -32 59 -48 45 -15 73 -41 82 -79
8 -37 113 -231 124 -231 16 0 10 96 -11 162 -16 52 -27 69 -61 96 -24 17 -38
32 -33 32 6 0 15 -5 22 -12 9 -9 12 -9 12 -1 0 7 -10 19 -22 27 -12 9 -18 16
-13 16 6 0 37 -28 70 -62 33 -35 92 -89 131 -122 40 -32 98 -89 130 -127 32
-38 60 -66 63 -64 9 10 -79 172 -117 216 -51 58 -181 159 -229 178 -21 9 -39
22 -41 29 -1 8 1 12 5 10 113 -57 354 -139 333 -113 -6 7 -80 59 -165 115 -99
65 -152 106 -149 114 3 8 32 19 65 26 32 7 59 15 59 19 0 3 -23 21 -51 39 -28
18 -49 36 -46 38 2 3 31 -13 63 -35 37 -25 76 -42 104 -46 l45 -6 -25 21 c-14
12 -60 49 -102 83 l-77 62 0 143 c-1 105 -4 143 -13 140 -6 -2 -31 -42 -54
-89 -24 -46 -43 -81 -44 -78 -1 18 65 157 84 179 22 24 22 29 15 170 -7 144
-13 187 -25 199 -12 12 -44 -42 -45 -78 0 -27 -2 -31 -8 -17 -6 15 -11 4 -24
-45 -8 -35 -19 -85 -22 -111 -4 -26 -11 -46 -15 -43 -4 2 -15 26 -25 52 -10
26 -42 89 -72 139 -29 50 -53 96 -53 103 0 7 -4 9 -10 6 -5 -3 -10 -16 -10
-28 0 -12 -12 -63 -26 -113 l-26 -92 28 -48 c15 -27 48 -82 73 -123 37 -61 46
-71 53 -55 26 65 37 87 32 64 -3 -14 -31 -79 -64 -145 -48 -98 -73 -135 -134
-200 -87 -93 -102 -89 -21 5 30 36 54 67 52 70 -1 3 -32 33 -68 67 l-65 63
-35 -71 c-18 -39 -37 -73 -41 -75 -9 -6 -1 17 36 100 14 32 26 62 26 65 0 9
-115 84 -126 83 -5 0 -14 -18 -20 -39 l-12 -38 5 48 c5 40 3 47 -12 47 -15 0
-15 2 4 18 16 13 27 47 46 146 14 71 22 133 17 138 -4 4 -43 4 -87 -2 -98 -12
-110 -6 -18 10 111 18 114 21 134 125 10 50 18 111 18 137 1 55 -1 56 -114 61
-63 3 -61 3 22 5 50 1 94 6 97 10 2 4 6 48 7 97 l2 89 -129 33 c-71 18 -131
33 -134 33 -3 0 -59 -19 -125 -41z m-381 -238 c-6 -6 -11 1 -18 29 l-7 25 15
-25 c8 -14 12 -27 10 -29z m293 -63 c-3 -8 -6 -5 -6 6 -1 11 2 17 5 13 3 -3 4
-12 1 -19z m940 -315 c-3 -10 -5 -2 -5 17 0 19 2 27 5 18 2 -10 2 -26 0 -35z
m-779 -226 c8 -9 23 -18 35 -20 17 -3 16 -5 -7 -6 -26 -1 -28 -4 -21 -28 6
-26 6 -27 -13 -10 -10 9 -21 17 -25 17 -3 0 -31 -19 -62 -42 -44 -32 -54 -45
-49 -61 4 -13 2 -17 -5 -13 -20 13 -11 45 17 60 15 8 42 28 60 45 38 36 41 63
12 146 -11 32 -20 70 -19 84 0 16 13 -10 32 -65 18 -50 38 -99 45 -107z m789
121 c-2 -13 -4 -3 -4 22 0 25 2 35 4 23 2 -13 2 -33 0 -45z m10 -95 c-3 -10
-5 -2 -5 17 0 19 2 27 5 18 2 -10 2 -26 0 -35z m-704 -60 c-7 -2 -19 -2 -25 0
-7 3 -2 5 12 5 14 0 19 -2 13 -5z m614 -175 c-2 -35 -3 -9 -3 57 0 66 1 94 3
63 2 -32 2 -86 0 -120z m-24 62 c8 -31 -3 -160 -19 -222 -29 -116 -120 -273
-161 -281 -14 -3 -40 6 -66 23 -43 27 -97 77 -97 89 0 4 25 34 55 66 31 33 66
71 78 85 33 36 106 136 150 203 40 61 52 68 60 37z m114 -32 c-3 -7 -5 -2 -5
12 0 14 2 19 5 13 2 -7 2 -19 0 -25z m-1207 -88 c0 -12 187 -199 194 -193 3 4
6 1 6 -5 0 -7 6 -12 13 -12 21 -1 104 -67 104 -84 0 -9 -2 -14 -5 -12 -5 5
-10 1 -62 -44 -83 -73 -129 -49 -209 109 -51 101 -81 186 -81 232 0 22 4 26
20 22 11 -3 20 -9 20 -13z m-300 -75 c30 -30 52 -55 49 -55 -2 0 -29 25 -59
55 -30 30 -52 55 -49 55 2 0 29 -25 59 -55z m925 17 c-3 -3 -11 0 -18 7 -9 10
-8 11 6 5 10 -3 15 -9 12 -12z m582 -14 c-3 -8 -6 -5 -6 6 -1 11 2 17 5 13 3
-3 4 -12 1 -19z m-899 -135 c21 -17 33 -35 29 -39 -4 -5 -49 34 -100 86 -95
96 -92 95 71 -47z m912 92 c-13 -14 -25 -23 -27 -21 -2 2 -21 -4 -41 -14 -20
-10 -39 -16 -42 -13 -3 3 0 8 6 10 6 2 35 18 65 37 30 18 56 31 58 29 3 -2 -6
-14 -19 -28z m-460 -37 c0 -13 -23 -5 -28 10 -2 7 2 10 12 6 9 -3 16 -11 16
-16z m427 -60 c-3 -8 -6 -5 -6 6 -1 11 2 17 5 13 3 -3 4 -12 1 -19z m-1177
-88 c6 -11 8 -20 6 -20 -3 0 -10 9 -16 20 -6 11 -8 20 -6 20 3 0 10 -9 16 -20z
m509 -12 c-1 -19 -3 -25 -6 -15 -4 17 -6 17 -31 1 -27 -17 -27 -17 2 15 17 17
31 31 33 31 2 0 2 -15 2 -32z m648 10 c-3 -8 -6 -5 -6 6 -1 11 2 17 5 13 3 -3
4 -12 1 -19z m-506 -70 l59 -60 10 26 c14 38 23 32 15 -12 -5 -30 -2 -44 15
-65 28 -35 36 -34 50 8 6 19 15 35 20 35 4 0 0 -20 -9 -45 l-16 -45 51 -47
c28 -27 53 -52 55 -58 5 -15 66 -54 73 -47 3 3 6 -5 6 -17 0 -21 25 -80 39
-91 3 -3 6 -15 7 -27 0 -13 -2 -21 -4 -18 -3 3 -12 -1 -20 -8 -13 -11 -14 -9
-1 10 12 20 11 28 -9 68 -19 40 -41 59 -42 38 -1 -5 -19 -28 -42 -53 -46 -50
-40 -38 15 31 20 25 37 49 37 52 0 3 -14 14 -32 25 -26 17 -35 18 -47 9 -12
-9 -13 -9 -7 1 12 21 -3 50 -46 83 l-41 33 -29 -35 c-29 -33 -29 -33 -9 -2 27
41 27 46 -10 85 l-30 33 -25 -30 c-16 -20 -24 -43 -25 -70 0 -33 -2 -36 -9
-18 -10 25 -39 43 -71 43 -28 0 -14 17 18 22 l22 3 -28 67 c-47 111 -43 129 6
29 l46 -94 24 29 c12 16 23 32 23 36 0 5 -33 42 -72 85 -84 88 -55 81 33 -9z
m-557 -57 c-3 -4 -50 49 -73 83 -7 12 7 -1 32 -29 25 -27 43 -52 41 -54z m376
-12 c-11 -30 -18 -40 -15 -24 7 36 26 87 31 82 2 -2 -5 -28 -16 -58z m437 25
c-3 -3 -12 -4 -19 -1 -8 3 -5 6 6 6 11 1 17 -2 13 -5z m-424 -115 l32 -1 -30
-7 c-38 -9 -45 -5 -44 22 1 17 2 18 6 5 3 -12 15 -18 36 -19z m674 -21 c-3 -7
-5 -2 -5 12 0 14 2 19 5 13 2 -7 2 -19 0 -25z m12 -98 c1 -33 -2 -60 -7 -60
-7 0 -10 81 -3 113 4 22 8 0 10 -53z m-68 -13 c-10 -9 -11 -8 -5 6 3 10 9 15
12 12 3 -3 0 -11 -7 -18z m-241 -20 c0 -2 -10 -12 -22 -23 l-23 -19 19 23 c18
21 26 27 26 19z m287 -59 c-3 -8 -6 -5 -6 6 -1 11 2 17 5 13 3 -3 4 -12 1 -19z
m30 -55 c-2 -16 -4 -3 -4 27 0 30 2 43 4 28 2 -16 2 -40 0 -55z m-62 -36 c-8
-20 -15 -49 -16 -64 l-1 -28 -7 25 c-5 14 -4 29 1 35 4 5 8 17 8 27 0 17 21
50 28 44 1 -2 -5 -19 -13 -39z m-275 -46 c-5 -11 -15 -23 -21 -27 -6 -3 -3 5
6 20 20 30 30 35 15 7z m221 -44 c-10 -9 -11 -8 -5 6 3 10 9 15 12 12 3 -3 0
-11 -7 -18z m-261 -17 c-6 -11 -13 -20 -16 -20 -2 0 0 9 6 20 6 11 13 20 16
20 2 0 0 -9 -6 -20z m387 -42 c-3 -7 -5 -2 -5 12 0 14 2 19 5 13 2 -7 2 -19 0
-25z m21 -348 c0 -77 -3 -113 -8 -95 -4 17 -8 91 -8 165 0 90 3 122 8 95 4
-22 8 -96 8 -165z m1284 -115 c9 -20 9 -20 -6 -1 -9 11 -16 27 -15 35 0 14 1
14 6 1 3 -8 10 -24 15 -35z m40 -70 c9 -20 9 -20 -6 -1 -9 11 -16 27 -15 35 0
14 1 14 6 1 3 -8 10 -24 15 -35z m-1315 -12 c-3 -10 -5 -4 -5 12 0 17 2 24 5
18 2 -7 2 -21 0 -30z m-2693 -4 c-8 -14 -34 -10 -34 5 0 9 7 12 20 9 11 -3 17
-9 14 -14z m-188 -39 c7 0 11 -6 8 -13 -3 -9 -16 -12 -36 -9 -24 4 -27 7 -15
13 9 6 13 18 11 31 l-5 23 12 -22 c7 -13 18 -23 25 -23z m-204 -1 c6 -17 20
-34 32 -39 17 -7 18 -9 4 -9 -10 -1 -18 -6 -18 -12 0 -5 -5 -7 -11 -4 -5 4
-48 1 -95 -6 -67 -10 -84 -15 -79 -27 4 -11 1 -12 -12 -6 -28 14 -136 7 -148
-9 -12 -17 -35 -11 -35 9 0 9 11 14 29 14 71 0 119 13 129 34 9 17 11 18 11 4
1 -21 19 -22 111 -7 35 5 68 15 71 21 4 6 3 24 -1 39 -11 39 -2 37 12 -2z
m3095 -1 c-3 -8 -6 -5 -6 6 -1 11 2 17 5 13 3 -3 4 -12 1 -19z m1330 0 c-3 -8
-6 -5 -6 6 -1 11 2 17 5 13 3 -3 4 -12 1 -19z m-4905 -25 c10 -9 18 -21 18
-26 0 -6 -10 -1 -22 10 -13 11 -30 23 -38 26 -11 4 -10 6 4 6 11 1 28 -6 38
-16z m611 0 c-7 -2 -19 -2 -25 0 -7 3 -2 5 12 5 14 0 19 -2 13 -5z m-46 -9
c-3 -3 -12 -4 -19 -1 -8 3 -5 6 6 6 11 1 17 -2 13 -5z m3020 -96 c-2 -13 -4
-5 -4 17 -1 22 1 32 4 23 2 -10 2 -28 0 -40z m-3552 -27 c3 -5 1 -12 -5 -16
-5 -3 -10 1 -10 9 0 18 6 21 15 7z m4772 -113 c-2 -18 -4 -6 -4 27 0 33 2 48
4 33 2 -15 2 -42 0 -60z m-4849 27 c-3 -3 -9 2 -12 12 -6 14 -5 15 5 6 7 -7
10 -15 7 -18z m-88 -90 c13 -14 21 -25 18 -25 -2 0 -15 11 -28 25 -13 14 -21
25 -18 25 2 0 15 -11 28 -25z m-293 -37 c-3 -7 -5 -2 -5 12 0 14 2 19 5 13 2
-7 2 -19 0 -25z m-184 -15 c-7 -2 -19 -2 -25 0 -7 3 -2 5 12 5 14 0 19 -2 13
-5z m48 -20 c13 -17 13 -17 -6 -3 -11 8 -22 16 -24 17 -2 2 0 3 6 3 6 0 17 -8
24 -17z m269 -3 c12 -8 11 -10 -7 -10 -12 0 -25 5 -28 10 -8 13 15 13 35 0z
m-305 -20 c3 -6 -1 -7 -9 -4 -18 7 -21 14 -7 14 6 0 13 -4 16 -10z m5 -96 c0
-8 -5 -12 -10 -9 -6 4 -8 11 -5 16 9 14 15 11 15 -7z m4567 10 c-3 -3 -12 -4
-19 -1 -8 3 -5 6 6 6 11 1 17 -2 13 -5z m830 -71 c-2 -16 -4 -3 -4 27 0 30 2
43 4 28 2 -16 2 -40 0 -55z m-5289 -34 c-3 -8 -7 -3 -11 10 -4 17 -3 21 5 13
5 -5 8 -16 6 -23z m116 -75 c3 -8 2 -12 -4 -9 -6 3 -10 10 -10 16 0 14 7 11
14 -7z m-108 -72 c-10 -10 -29 15 -21 28 6 9 10 8 17 -4 6 -10 7 -20 4 -24z
m5131 -94 c-3 -7 -5 -2 -5 12 0 14 2 19 5 13 2 -7 2 -19 0 -25z m10 -95 c-2
-16 -4 -5 -4 22 0 28 2 40 4 28 2 -13 2 -35 0 -50z m-3104 -534 c-4 -13 -9
-17 -15 -11 -11 11 -3 32 12 32 4 0 6 -9 3 -21z m-120 -29 c-8 -29 -29 -44
-37 -25 -3 9 -2 13 4 10 6 -3 10 2 10 13 0 10 3 22 6 25 12 12 22 -3 17 -23z
m46 -23 c-14 -30 -24 -34 -33 -12 -7 18 25 58 37 46 4 -4 3 -20 -4 -34z m-106
18 c-3 -9 -8 -14 -10 -11 -3 3 -2 9 2 15 9 16 15 13 8 -4z m146 -27 c-8 -18
-8 -31 -1 -45 12 -21 5 -63 -9 -63 -16 0 -19 20 -7 39 10 16 10 23 0 33 -15
15 -16 50 0 66 19 19 30 -2 17 -30z m3046 32 c3 -5 1 -10 -4 -10 -6 0 -11 5
-11 10 0 6 2 10 4 10 3 0 8 -4 11 -10z m-3008 -57 c-9 -20 -12 -21 -19 -9 -5
9 -4 23 4 35 17 27 30 5 15 -26z m-171 -7 c6 -17 -22 -76 -36 -76 -13 0 -13
20 1 59 12 33 26 40 35 17z m40 -42 c-13 -28 -20 -34 -28 -26 -9 9 -7 21 6 48
13 28 20 34 28 26 9 -9 7 -21 -6 -48z m-106 9 c-11 -17 -11 -17 -6 0 3 10 6
24 7 30 0 9 2 9 5 0 3 -7 0 -20 -6 -30z m170 9 c0 -9 -7 -25 -14 -35 -12 -15
-15 -15 -25 -3 -10 12 -9 20 4 40 18 27 35 26 35 -2z m1707 6 c-3 -8 -6 -5 -6
6 -1 11 2 17 5 13 3 -3 4 -12 1 -19z m636 -42 c2 -32 10 -61 16 -65 9 -6 7
-11 -5 -22 -14 -12 -19 -11 -33 7 -9 11 -25 26 -36 33 -20 12 -20 12 0 6 11
-4 25 -7 30 -8 6 -1 11 24 13 57 4 72 9 69 15 -8z m564 -23 c-2 -16 -4 -5 -4
22 0 28 2 40 4 28 2 -13 2 -35 0 -50z m-1190 5 c-3 -7 -5 -2 -5 12 0 14 2 19
5 13 2 -7 2 -19 0 -25z m-1912 2 c3 -5 1 -10 -4 -10 -6 0 -11 5 -11 10 0 6 2
10 4 10 3 0 8 -4 11 -10z m92 -11 c14 -14 -14 -79 -34 -79 -15 0 -18 36 -3 45
6 3 10 15 10 26 0 21 10 25 27 8z m58 -9 c8 -27 -31 -81 -41 -56 -7 18 13 76
27 76 4 0 11 -9 14 -20z m1582 -12 c-3 -7 -5 -2 -5 12 0 14 2 19 5 13 2 -7 2
-19 0 -25z m-1694 -6 c-3 -9 -11 -21 -18 -27 -12 -10 -15 -17 -15 -36 0 -5 -4
-7 -10 -4 -15 9 -12 26 10 63 20 33 44 36 33 4z m157 10 c0 -25 -25 -58 -34
-44 -7 12 13 62 26 62 4 0 8 -8 8 -18z m22 -44 c-6 -6 -7 0 -4 19 5 21 7 23
10 9 2 -10 0 -22 -6 -28z m1525 -30 c-3 -8 -6 -5 -6 6 -1 11 2 17 5 13 3 -3 4
-12 1 -19z m-1637 -12 c0 -16 -24 -38 -33 -30 -8 9 14 54 24 48 5 -3 9 -11 9
-18z m42 -3 c-6 -3 -10 -8 -8 -11 2 -4 -3 -14 -12 -22 -14 -13 -15 -12 -8 5 5
11 11 28 13 38 4 14 8 16 17 6 8 -8 8 -13 -2 -16z m36 -8 c-6 -14 -13 -24 -14
-22 -6 6 9 47 17 47 5 0 3 -11 -3 -25z m-143 5 c3 -5 1 -10 -4 -10 -6 0 -11 5
-11 10 0 6 2 10 4 10 3 0 8 -4 11 -10z m30 -39 c3 -5 1 -12 -5 -16 -5 -3 -10
1 -10 9 0 18 6 21 15 7z m2451 -163 c-17 -11 -23 -10 -30 8 -3 8 -2 12 4 9 6
-3 10 -1 10 5 0 7 5 6 14 -2 10 -9 11 -15 2 -20z m-33 -205 c8 -40 -15 -52
-37 -18 -14 21 -14 23 4 18 16 -4 20 0 20 18 0 29 6 22 13 -18z m-128 -238
c31 -22 40 -24 53 -13 13 11 15 10 9 -5 -4 -11 -1 -20 9 -24 12 -4 11 -8 -8
-17 -21 -11 -24 -9 -35 15 -6 15 -29 37 -50 48 -21 11 -33 20 -27 21 6 0 28
-11 49 -25z m-19 -254 c11 9 14 8 14 -10 0 -16 7 -21 28 -22 l27 -2 -26 -4
c-31 -5 -52 -26 -68 -68 l-11 -30 7 30 c10 47 7 75 -13 97 -19 21 -19 21 4 9
18 -10 27 -10 38 0z m-3006 -133 c19 -14 74 -38 122 -52 99 -28 92 -25 170
-82 31 -23 72 -44 91 -48 19 -4 43 -16 53 -28 l19 -22 -25 17 c-13 9 -38 17
-55 17 -28 0 -39 -12 -134 -151 -71 -104 -99 -154 -91 -159 8 -5 4 -10 -12
-14 -15 -4 -46 -41 -88 -103 -36 -53 -76 -110 -88 -125 l-24 -28 -19 24 c-26
33 -164 117 -180 111 -8 -3 -49 -69 -93 -147 -66 -119 -76 -143 -64 -152 47
-35 78 -62 78 -69 0 -5 -20 6 -44 24 -25 17 -51 29 -58 27 -7 -3 -44 -60 -82
-127 l-68 -121 43 -40 c52 -47 48 -53 -6 -10 -37 29 -39 30 -55 13 -33 -36
-131 -206 -123 -212 23 -15 60 -49 78 -71 11 -13 -4 -4 -33 20 -34 28 -56 40
-62 34 -5 -5 -37 -55 -70 -109 l-60 -100 45 -23 c25 -12 45 -27 45 -32 0 -5
-19 2 -42 15 -24 14 -46 25 -50 25 -3 0 -36 -41 -72 -92 l-67 -92 51 -20 c61
-23 60 -31 -2 -15 -25 7 -51 10 -59 7 -18 -7 -91 -147 -83 -159 3 -5 22 -9 42
-9 20 0 64 -7 97 -15 33 -8 74 -15 90 -16 24 -1 25 -3 8 -6 -19 -4 -23 -12
-25 -41 l-1 -37 -4 36 c-4 34 -8 38 -46 47 -23 6 -70 14 -104 18 -60 6 -62 6
-67 -17 -18 -77 -26 -116 -26 -129 0 -24 171 -64 273 -64 68 1 76 -1 47 -8
-42 -11 -53 -12 -107 -2 -42 6 -43 6 -44 -22 l-2 -29 -4 27 c-4 23 -12 29 -60
43 -30 9 -67 15 -81 13 -25 -3 -28 -9 -44 -78 -9 -41 -16 -82 -17 -90 0 -9 25
-26 63 -43 35 -16 79 -42 98 -58 27 -23 18 -20 -47 16 -65 37 -125 57 -125 42
0 -2 -9 -52 -20 -112 l-20 -108 38 -34 c23 -22 26 -27 8 -14 -16 12 -34 21
-40 21 -6 0 -24 -51 -40 -113 -31 -125 -31 -124 -21 -152 5 -15 4 -16 -3 -6
-5 7 -14 11 -19 8 -6 -4 -8 4 -6 17 7 32 -58 102 -129 141 -47 26 -65 30 -156
33 l-104 4 -44 -43 c-24 -24 -44 -47 -44 -51 0 -4 17 -10 38 -13 135 -23 272
-117 272 -187 0 -7 -8 3 -18 22 -36 73 -191 155 -279 148 -35 -3 -39 -7 -53
-45 -14 -43 -30 -57 -30 -28 0 9 6 31 14 50 14 33 14 35 -11 55 -14 11 -30 20
-36 20 -6 0 -8 3 -4 6 3 4 22 -3 40 -14 l35 -20 41 42 c23 23 41 47 41 53 0 6
-12 21 -27 33 l-28 22 37 -22 37 -21 43 58 c23 32 47 61 52 65 6 4 5 12 -2 21
-10 12 -8 15 11 19 29 6 55 -18 28 -25 -10 -2 -39 -35 -65 -72 l-47 -67 55 6
c112 14 235 -31 306 -112 l38 -43 17 56 c9 31 21 81 27 111 10 51 9 56 -12 79
-35 37 -112 59 -210 58 -83 0 -84 1 -32 10 76 13 180 -7 231 -43 l39 -28 16
91 c10 51 20 102 23 115 4 18 -1 25 -32 38 -20 8 -64 21 -98 28 -45 10 -53 14
-31 15 18 1 62 -8 99 -20 37 -11 68 -19 69 -17 8 10 34 171 30 182 -5 12 -78
36 -154 50 -14 3 4 3 39 0 35 -2 77 -11 93 -18 36 -19 39 -14 41 90 l2 78 -60
15 c-44 12 -53 17 -34 19 14 2 45 -3 68 -11 l42 -15 14 35 c8 20 15 37 15 39
0 3 12 23 26 45 31 49 24 61 -47 84 -27 9 -47 20 -44 25 6 10 67 -5 108 -27
16 -8 30 -13 31 -11 97 133 127 179 122 187 -4 6 -33 24 -66 42 -33 17 -57 36
-54 41 3 5 35 -7 71 -27 35 -19 68 -33 73 -30 16 10 120 186 120 203 -1 10
-26 33 -60 55 -32 22 -65 46 -72 54 -18 23 67 -22 115 -60 21 -16 39 -28 41
-26 30 37 126 214 122 224 -7 20 -148 116 -162 111 -7 -3 -15 3 -19 12 -3 9
-3 13 1 9 4 -4 13 1 21 11 9 12 12 13 8 2 -3 -10 14 -25 58 -49 34 -18 74 -44
88 -57 l25 -24 67 120 c37 66 67 129 67 140 0 25 -127 122 -151 116 -10 -2
-21 5 -27 18 -8 18 -6 22 9 22 11 0 19 -5 19 -11 0 -5 24 -22 53 -38 29 -15
67 -40 84 -56 23 -21 35 -26 41 -18 26 34 152 258 152 271 0 8 -16 28 -36 43
-78 60 -81 64 -59 56 11 -3 41 -21 67 -39 l47 -33 19 32 c57 96 122 216 122
225 0 6 -38 43 -85 83 -47 39 -85 73 -85 75 0 9 71 -41 123 -87 32 -28 60 -49
63 -46 8 8 132 246 138 265 4 12 -9 27 -47 52 -116 77 -186 118 -193 112 -4
-4 -4 -2 -1 4 8 13 155 -61 217 -108z m3481 5 c-12 -20 -14 -14 -5 12 4 9 9
14 11 11 3 -2 0 -13 -6 -23z m-22 -62 c-6 -18 -13 -30 -15 -28 -2 2 1 18 7 36
6 18 13 30 15 28 2 -2 -1 -18 -7 -36z m-3797 -96 c3 3 8 -3 11 -14 4 -17 2
-19 -13 -11 -10 5 -21 17 -24 26 -5 13 -4 14 7 6 8 -7 16 -9 19 -7z m-127
-325 c3 -4 -1 -12 -8 -18 -9 -8 -15 -4 -23 12 -9 20 -8 23 8 18 10 -2 20 -8
23 -12z m3772 -42 c-3 -8 -6 -5 -6 6 -1 11 2 17 5 13 3 -3 4 -12 1 -19z m2843
-140 c0 -13 -5 -9 -31 19 l-24 26 27 -19 c15 -10 28 -22 28 -26z m66 -66 c-4
-3 -13 3 -21 14 -22 28 -18 37 6 13 11 -11 18 -23 15 -27z m44 1 c0 -3 -9 2
-20 12 -11 10 -20 22 -20 27 0 4 9 -1 20 -12 11 -11 20 -23 20 -27z m-100 17
c6 -11 9 -20 7 -20 -2 0 -12 9 -22 20 -10 11 -13 20 -7 20 6 0 16 -9 22 -20z
m188 -95 c-8 -8 -70 53 -64 64 4 6 19 -3 38 -25 17 -19 29 -37 26 -39z m-66
30 c17 -23 6 -27 -17 -5 -28 27 -34 50 -7 29 9 -8 20 -18 24 -24z m118 -32 c0
-18 -3 -17 -31 13 l-24 26 28 -13 c15 -7 27 -18 27 -26z m-2000 -13 c-8 -6
-33 -9 -55 -8 l-40 1 40 4 c22 3 44 8 49 14 5 5 12 6 15 3 3 -3 -1 -9 -9 -14z
m1930 -1 c0 -6 -4 -7 -10 -4 -5 3 -10 11 -10 16 0 6 5 7 10 4 6 -3 10 -11 10
-16z m90 -14 c0 16 6 13 35 -15 33 -32 45 -60 26 -60 -5 0 -14 7 -21 15 -11
13 -15 13 -22 3 -6 -10 -17 -3 -44 25 -39 42 -37 73 2 36 22 -21 24 -21 24 -4z
m-2211 3 c-2 -2 -17 -14 -32 -28 -21 -18 -26 -20 -21 -7 4 11 1 17 -7 18 -8 0
2 6 21 13 29 10 54 13 39 4z m54 -5 c-7 -2 -21 -2 -30 0 -10 3 -4 5 12 5 17 0
24 -2 18 -5z m2114 -42 c0 -7 -8 -3 -18 10 -24 31 -24 48 -1 23 10 -10 19 -25
19 -33z m150 -1 c26 -32 13 -44 -17 -15 -33 32 -44 68 -12 44 9 -8 22 -21 29
-29z m-2420 24 c-3 -3 -12 -4 -19 -1 -8 3 -5 6 6 6 11 1 17 -2 13 -5z m-123
-12 c8 -13 -38 -28 -64 -21 l-25 7 27 1 c15 1 30 6 33 11 7 12 22 13 29 2z
m59 1 c-7 -2 -19 -2 -25 0 -7 3 -2 5 12 5 14 0 19 -2 13 -5z m2513 -8 c9 -8
11 -15 6 -15 -5 0 -15 7 -22 15 -7 8 -9 15 -6 15 4 0 14 -7 22 -15z m-2698
-22 c-10 -2 -28 -2 -40 0 -13 2 -5 4 17 4 22 1 32 -1 23 -4z m-1496 -558 c12
-16 9 -25 -7 -25 -8 0 -19 8 -24 19 -9 15 -7 18 7 17 9 0 20 -5 24 -11z m1828
-15 c0 -5 -4 -10 -10 -10 -5 0 -10 5 -10 10 0 6 5 10 10 10 6 0 10 -4 10 -10z
m260 -10 c-6 -11 -13 -20 -16 -20 -2 0 0 9 6 20 6 11 13 20 16 20 2 0 0 -9 -6
-20z m-20 -47 c0 -10 -4 -14 -8 -8 -4 6 -11 13 -16 18 -5 4 -2 7 7 7 10 0 17
-8 17 -17z m-5315 -413 c3 -6 -1 -7 -9 -4 -18 7 -21 14 -7 14 6 0 13 -4 16
-10z m-495 -275 c5 3 12 0 16 -6 4 -7 3 -9 -3 -6 -6 4 -22 -3 -37 -14 -17 -14
-24 -16 -20 -6 3 8 -1 19 -8 23 -9 6 -6 10 12 14 14 4 27 3 28 -2 2 -4 8 -6
12 -3z m487 -37 c-3 -7 -5 -2 -5 12 0 14 2 19 5 13 2 -7 2 -19 0 -25z m2786 5
c-7 -2 -19 -2 -25 0 -7 3 -2 5 12 5 14 0 19 -2 13 -5z m-2866 -200 c-2 -16 -4
-3 -4 27 0 30 2 43 4 28 2 -16 2 -40 0 -55z m100 15 c-2 -13 -4 -5 -4 17 -1
22 1 32 4 23 2 -10 2 -28 0 -40z m2720 -84 c-3 -3 -12 -4 -19 -1 -8 3 -5 6 6
6 11 1 17 -2 13 -5z m372 -200 c2 -2 -18 -4 -45 -3 -36 0 -44 3 -29 9 18 7 63
3 74 -6z m-669 -30 c0 -2 -9 0 -20 6 -11 6 -20 13 -20 16 0 2 9 0 20 -6 11 -6
20 -13 20 -16z m55 -33 c3 -5 1 -12 -5 -16 -5 -3 -10 -1 -10 6 0 6 -8 18 -17
26 -16 13 -16 13 4 3 12 -5 24 -14 28 -19z m215 4 c19 -14 42 -25 52 -25 12 0
18 -7 18 -22 0 -12 5 -36 11 -53 7 -19 9 -44 4 -61 l-8 -29 -7 25 c-5 14 -8
41 -9 61 -1 38 -39 82 -96 112 -16 9 -23 16 -14 17 8 0 30 -11 49 -25z m213
18 c-7 -2 -19 -2 -25 0 -7 3 -2 5 12 5 14 0 19 -2 13 -5z m115 -78 c-2 -1 -21
4 -43 11 -24 8 -29 11 -11 8 28 -5 29 -4 23 28 l-6 33 20 -38 c11 -22 19 -40
17 -42z m-661 -11 c13 -21 23 -46 22 -54 0 -8 -9 3 -21 25 -11 22 -28 49 -37
59 -13 16 -14 18 -1 14 8 -2 25 -22 37 -44z m310 0 c31 -35 60 -119 50 -146
-2 -7 -7 5 -11 27 -12 70 -42 122 -83 145 -27 14 -31 19 -13 15 14 -4 39 -22
57 -41z m-399 0 c26 -18 62 -85 61 -111 0 -10 -7 1 -15 24 -9 23 -31 56 -50
73 -37 32 -34 41 4 14z m342 -29 c16 -9 36 -29 45 -45 21 -41 19 -51 -3 -15
-24 39 -40 51 -82 63 -26 8 -29 10 -12 11 13 1 36 -6 52 -14z m450 -15 c11 -7
5 -10 -23 -10 -23 0 -36 4 -32 10 8 13 35 13 55 0z m-434 -84 c19 -19 34 -40
34 -47 0 -7 -7 -3 -16 9 -8 12 -33 31 -55 42 -44 23 -48 30 -18 30 12 0 36
-15 55 -34z m-385 -25 c43 -43 35 -58 -11 -21 -22 17 -40 36 -40 41 0 17 22 9
51 -20z m884 7 c14 -6 25 -15 25 -20 0 -5 -9 -4 -19 2 -11 5 -34 10 -51 10
-18 0 -29 4 -25 10 8 13 38 13 70 -2z m262 -190 c-3 -8 -6 -5 -6 6 -1 11 2 17
5 13 3 -3 4 -12 1 -19z m-1339 -90 c7 -7 12 -21 12 -31 0 -17 -2 -17 -20 6
-11 14 -20 28 -20 31 0 10 15 7 28 -6z"/>
<path d="M2265 3293 c-32 -59 -67 -123 -78 -141 -10 -18 -18 -35 -16 -37 2 -1
42 -26 89 -54 47 -29 95 -61 108 -71 12 -11 24 -20 27 -20 8 0 195 286 195
298 0 19 -112 92 -165 107 -112 32 -96 40 -160 -82z"/>
<path d="M2114 3023 c-20 -38 -50 -91 -65 -120 -31 -54 -35 -73 -19 -73 15 0
121 -69 155 -101 l31 -29 83 122 c65 94 82 125 74 137 -11 18 -191 131 -209
131 -7 0 -29 -30 -50 -67z"/>
<path d="M4719 8888 c0 -7 -4 -46 -8 -86 l-7 -74 89 -84 c49 -46 95 -84 103
-84 14 0 13 -1 43 108 l20 72 -52 38 c-72 53 -175 122 -181 122 -4 0 -6 -6 -7
-12z"/>
<path d="M5004 8822 c-6 -4 -14 -23 -18 -44 -6 -32 1 -49 63 -160 39 -67 74
-129 78 -136 6 -9 16 -3 36 23 l28 35 -41 78 c-22 43 -62 106 -89 139 -27 34
-47 64 -44 67 9 8 0 7 -13 -2z"/>
<path d="M4951 8648 c-28 -98 -27 -115 16 -195 20 -37 54 -102 74 -143 36 -72
38 -74 44 -45 3 17 15 65 25 108 19 73 19 80 4 110 -23 44 -135 237 -138 237
-2 0 -13 -33 -25 -72z"/>
<path d="M4683 8563 l-21 -138 43 -40 c44 -43 130 -94 140 -84 7 8 43 131 54
186 l8 42 -61 50 c-34 27 -77 65 -95 85 -19 20 -37 36 -41 36 -3 0 -15 -62
-27 -137z"/>
<path d="M4636 8260 c-15 -70 -26 -136 -24 -146 4 -25 96 -86 122 -82 25 4 86
137 94 204 4 40 2 43 -29 59 -19 10 -57 34 -85 55 l-51 38 -27 -128z"/>
<path d="M4834 8178 c-9 -29 -28 -76 -41 -106 -12 -29 -23 -63 -23 -75 1 -25
39 -71 91 -111 l37 -27 30 39 c17 21 38 57 47 80 l17 41 -61 97 c-34 53 -61
101 -61 106 0 4 -4 8 -9 8 -5 0 -17 -24 -27 -52z"/>
<path d="M5276 7642 l-70 -17 92 -58 c51 -33 132 -87 180 -121 72 -52 108 -70
212 -104 68 -23 126 -40 127 -38 4 3 -124 119 -203 183 -51 42 -252 174 -263
172 -3 0 -37 -8 -75 -17z"/>
<path d="M5390 7656 c0 -2 41 -29 90 -60 104 -66 169 -117 295 -231 50 -45
115 -93 145 -108 30 -14 70 -36 89 -48 31 -21 33 -21 23 -3 -46 87 -516 434
-604 447 -21 3 -38 4 -38 3z"/>
<path d="M5323 7425 c16 -12 65 -55 110 -94 82 -73 367 -266 367 -249 0 19
-80 126 -147 197 l-70 74 -144 47 c-120 40 -139 44 -116 25z"/>
<path d="M5625 7330 c9 -10 39 -43 66 -72 44 -48 87 -105 132 -180 9 -15 63
-59 119 -99 57 -40 118 -86 135 -102 18 -17 35 -28 38 -25 23 23 -203 378
-262 411 -8 5 -67 26 -130 48 -95 32 -113 35 -98 19z"/>
<path d="M5965 7150 c79 -107 133 -197 161 -270 11 -29 47 -76 98 -130 45 -47
101 -107 124 -135 50 -59 53 -47 17 61 -65 195 -220 428 -330 498 -54 35 -130
76 -140 76 -2 0 29 -45 70 -100z"/>
<path d="M5524 7199 c13 -24 32 -69 41 -99 10 -30 29 -69 42 -87 29 -38 232
-227 238 -222 2 3 -3 58 -10 124 -8 66 -15 121 -15 123 0 4 -290 192 -306 199
-9 3 -6 -9 10 -38z"/>
<path d="M5843 6983 c3 -21 9 -77 13 -124 7 -86 7 -87 60 -154 29 -37 81 -113
116 -168 34 -56 75 -120 90 -141 l28 -39 -5 124 c-3 68 -7 171 -10 228 l-5
105 -37 30 c-56 48 -236 176 -246 176 -5 0 -7 -17 -4 -37z"/>
<path d="M5448 6793 c-15 -16 -36 -50 -48 -78 -24 -56 -21 -81 32 -235 15 -47
35 -112 44 -145 8 -33 17 -67 20 -75 3 -9 21 15 46 60 47 86 78 130 126 181
l33 36 -71 89 c-39 48 -86 112 -103 141 -17 29 -37 53 -42 53 -6 0 -23 -12
-37 -27z"/>
<path d="M6406 6673 c-3 -4 18 -32 48 -62 30 -31 65 -73 79 -94 37 -56 42 -27
7 42 -21 42 -43 69 -74 90 -49 34 -50 34 -60 24z"/>
<path d="M6421 6524 c0 -11 3 -14 6 -6 3 7 2 16 -1 19 -3 4 -6 -2 -5 -13z"/>
<path d="M6137 6258 c-68 -91 -118 -251 -88 -283 14 -16 177 -337 189 -374
l12 -34 18 24 c39 51 80 127 111 206 29 73 32 86 22 115 -25 72 -213 378 -232
378 -4 0 -19 -15 -32 -32z"/>
<path d="M5975 5978 c-34 -19 -168 -124 -207 -162 -21 -20 -38 -42 -38 -49 0
-6 16 -35 36 -62 20 -28 63 -90 96 -140 33 -49 61 -91 62 -93 2 -1 30 11 62
27 77 38 148 62 206 70 l47 6 -32 70 c-28 61 -133 257 -174 323 -15 25 -28 27
-58 10z"/>
<path d="M5743 5429 c-84 -12 -204 -51 -215 -69 -7 -11 4 -38 37 -95 25 -44
58 -110 73 -147 19 -48 31 -66 41 -63 43 16 206 36 269 33 86 -4 84 -8 48 127
-31 116 -63 197 -83 213 -19 14 -78 14 -170 1z"/>
<path d="M6395 4509 c-4 -6 -5 -12 -2 -15 2 -3 7 2 10 11 7 17 1 20 -8 4z"/>
<path d="M5740 4357 l0 -122 78 0 c66 0 84 -4 125 -28 26 -15 47 -32 47 -37 0
-6 5 -10 10 -10 11 0 8 269 -3 287 -11 18 -92 33 -176 33 l-81 0 0 -123z"/>
<path d="M6543 4283 c1 -13 5 -23 10 -23 5 0 7 -7 3 -15 -3 -8 -1 -15 4 -15
14 0 24 21 13 29 -5 3 -15 15 -21 26 -11 19 -11 19 -9 -2z"/>
<path d="M6605 4240 c3 -5 8 -10 11 -10 2 0 4 5 4 10 0 6 -5 10 -11 10 -5 0
-7 -4 -4 -10z"/>
<path d="M6675 4220 c-3 -5 1 -10 9 -10 9 0 16 5 16 10 0 6 -4 10 -9 10 -6 0
-13 -4 -16 -10z"/>
<path d="M6707 4194 c-8 -8 1 -24 14 -24 5 0 9 7 9 15 0 15 -12 20 -23 9z"/>
<path d="M6830 4160 c0 -5 7 -10 15 -10 8 0 15 5 15 10 0 6 -7 10 -15 10 -8 0
-15 -4 -15 -10z"/>
<path d="M6910 4131 c0 -5 7 -11 14 -14 10 -4 13 -1 9 9 -6 15 -23 19 -23 5z"/>
<path d="M7670 3720 c0 -5 5 -10 11 -10 5 0 7 5 4 10 -3 6 -8 10 -11 10 -2 0
-4 -4 -4 -10z"/>
<path d="M7750 3661 c0 -5 5 -13 10 -16 6 -3 10 -2 10 4 0 5 -4 13 -10 16 -5
3 -10 2 -10 -4z"/>
<path d="M7790 3640 c0 -5 5 -10 11 -10 5 0 7 5 4 10 -3 6 -8 10 -11 10 -2 0
-4 -4 -4 -10z"/>
<path d="M7875 3570 c-3 -5 -1 -10 4 -10 6 0 11 5 11 10 0 6 -2 10 -4 10 -3 0
-8 -4 -11 -10z"/>
<path d="M7950 3501 c0 -5 5 -13 10 -16 6 -3 10 -2 10 4 0 5 -4 13 -10 16 -5
3 -10 2 -10 -4z"/>
<path d="M8141 3314 c13 -16 29 -19 29 -5 0 5 -9 11 -21 14 -16 4 -18 3 -8 -9z"/>
<path d="M8326 3161 c-4 -5 -2 -12 3 -15 5 -4 12 -2 15 3 4 5 2 12 -3 15 -5 4
-12 2 -15 -3z"/>
<path d="M8400 3100 c0 -5 5 -10 11 -10 5 0 7 5 4 10 -3 6 -8 10 -11 10 -2 0
-4 -4 -4 -10z"/>
<path d="M8611 2937 c2 -1 12 -9 22 -16 15 -12 17 -12 11 3 -3 9 -13 16 -22
16 -8 0 -13 -1 -11 -3z"/>
<path d="M8720 2862 c0 -5 7 -15 15 -22 8 -7 15 -8 15 -2 0 5 -7 15 -15 22 -8
7 -15 8 -15 2z"/>
<path d="M6964 2056 c11 -9 24 -16 30 -16 5 0 7 -3 4 -6 -4 -3 -20 2 -37 10
-47 25 -51 20 -30 -44 20 -57 24 -61 91 -100 39 -22 68 -35 66 -28 -3 7 -16
43 -29 81 -13 37 -30 67 -37 67 -7 0 -11 4 -8 9 7 11 -12 27 -44 35 -24 7 -24
6 -6 -8z"/>
<path d="M7085 1923 c23 -65 31 -76 86 -116 14 -11 9 -9 -14 4 -21 12 -40 20
-41 18 -5 -5 -26 -83 -23 -84 1 -1 24 -18 51 -38 57 -43 62 -44 71 -16 4 11
18 24 31 29 14 6 24 18 24 28 0 26 -41 84 -69 98 -13 7 -36 34 -51 61 -24 42
-66 83 -84 83 -3 0 5 -30 19 -67z m136 -150 c13 -16 12 -17 -3 -4 -10 7 -18
15 -18 17 0 8 8 3 21 -13z"/>
<path d="M6915 1874 c-15 -25 -25 -47 -23 -48 7 -6 134 -55 159 -61 24 -6 27
-3 37 36 6 24 10 44 9 45 -37 24 -132 74 -142 74 -7 0 -25 -21 -40 -46z"/>
<path d="M7238 1685 c-13 -30 -18 -25 58 -63 60 -30 61 -30 77 -11 9 10 26 19
37 19 35 0 22 17 -27 35 -27 10 -57 24 -68 32 -31 21 -64 16 -77 -12z"/>
<path d="M4276 1114 c-20 -58 -20 -74 -2 -74 7 0 38 -13 69 -28 l56 -28 11 49
c15 72 -7 101 -94 123 -21 5 -25 0 -40 -42z"/>
<path d="M4445 1120 c-5 -8 -14 -44 -21 -79 -12 -63 -11 -66 13 -98 30 -39 37
-42 27 -10 -4 12 -6 37 -5 55 1 17 -3 41 -9 52 -8 14 -8 26 0 41 14 26 10 62
-5 39z"/>
<path d="M4230 990 c-11 -21 -20 -44 -20 -49 0 -5 23 -14 50 -20 28 -6 69 -20
90 -31 l40 -20 0 48 c0 57 -14 74 -79 97 -58 20 -58 20 -81 -25z"/>
</g>
</svg>
